<svg width="28" height="27" viewBox="0 0 28 27" fill="none" xmlns="http://www.w3.org/2000/svg">
<path d="M25.1121 0.0766602H2.37575C1.31743 0.0766602 0.459595 0.9345 0.459595 1.99281V24.7292C0.459595 25.7875 1.31743 26.6454 2.37575 26.6454H14.6521V16.3707H11.2012V12.3491H14.6521V9.38945C14.6521 5.95728 16.7474 4.08917 19.809 4.08917C21.2754 4.08917 22.5356 4.19842 22.9029 4.24728V7.83451H20.7917C19.1259 7.83451 18.8034 8.62607 18.8034 9.78776V12.3491H22.7861L22.2672 16.3707H18.8034V26.6454H25.1121C26.1705 26.6454 27.0283 25.7875 27.0283 24.7292V1.99281C27.0283 0.9345 26.1705 0.0766602 25.1121 0.0766602V0.0766602Z" fill="#808080"/>
</svg>
