<svg width="27" height="27" viewBox="0 0 27 27" fill="none" xmlns="http://www.w3.org/2000/svg">
<path d="M25.7355 1.08007C25.0666 0.411029 24.2651 0.0766602 23.3313 0.0766602H3.57752C2.64342 0.0766602 1.84213 0.41115 1.17309 1.08007C0.504168 1.74881 0.1698 2.55022 0.1698 3.48414V23.2377C0.1698 24.1715 0.504108 24.9731 1.17309 25.6419C1.84213 26.3107 2.64361 26.6454 3.57752 26.6454H23.331C24.2646 26.6454 25.0664 26.3107 25.7353 25.6419C26.4043 24.9731 26.7384 24.1715 26.7384 23.2377V3.48414C26.7383 2.55004 26.4043 1.74905 25.7355 1.08007ZM9.70957 9.6506C10.7531 8.64174 12.0072 8.13707 13.4717 8.13707C14.9476 8.13707 16.2073 8.64174 17.2511 9.6506C18.2948 10.6596 18.8164 11.8792 18.8164 13.3091C18.8164 14.7388 18.2948 15.9584 17.2511 16.9671C16.2073 17.9764 14.948 18.481 13.4717 18.481C12.0073 18.481 10.7533 17.976 9.70957 16.9671C8.66581 15.9583 8.144 14.7388 8.144 13.3091C8.144 11.8792 8.66581 10.6597 9.70957 9.6506ZM23.7291 22.5288C23.7291 22.8284 23.625 23.0791 23.4177 23.281C23.2097 23.4828 22.9621 23.5837 22.6735 23.5837H4.18301C3.88324 23.5837 3.63223 23.4828 3.4306 23.281C3.22868 23.0795 3.1278 22.8284 3.1278 22.5288V11.3197H5.56665C5.33612 12.0463 5.22083 12.8017 5.22083 13.5857C5.22083 15.8003 6.02794 17.6882 7.64235 19.2511C9.25694 20.8133 11.2 21.5948 13.4717 21.5948C14.9708 21.5948 16.3545 21.2372 17.6234 20.5223C18.8918 19.8069 19.8945 18.8357 20.633 17.6074C21.3711 16.3792 21.7401 15.0386 21.7401 13.5858C21.7401 12.8018 21.6244 12.0466 21.3939 11.3198H23.7292V22.5289H23.7291V22.5288ZM23.7291 7.08186C23.7291 7.41629 23.6138 7.69886 23.3828 7.92944C23.1523 8.16021 22.8699 8.27544 22.5353 8.27544H19.5257C19.1914 8.27544 18.9086 8.16015 18.6781 7.92944C18.4475 7.69886 18.3323 7.41629 18.3323 7.08186V4.22806C18.3323 3.90515 18.4475 3.62555 18.6781 3.38908C18.9087 3.15274 19.1915 3.03442 19.5257 3.03442H22.5353C22.8699 3.03442 23.1523 3.15268 23.3828 3.38908C23.6138 3.62555 23.7291 3.90515 23.7291 4.22806V7.08186Z" fill="#808080"/>
</svg>
