<svg width="28" height="23" viewBox="0 0 28 23" fill="none" xmlns="http://www.w3.org/2000/svg">
<path d="M27.4469 3.12296C26.4588 3.55636 25.4061 3.84364 24.3084 3.98312C25.4376 3.30894 26.2994 2.24951 26.7046 0.972555C25.6518 1.60024 24.4894 2.04361 23.2507 2.29103C22.251 1.22662 20.8263 0.567383 19.272 0.567383C16.2565 0.567383 13.8288 3.01502 13.8288 6.01563C13.8288 6.44737 13.8653 6.8625 13.955 7.25771C9.42665 7.03686 5.41976 4.86653 2.72802 1.56039C2.25809 2.37571 1.98244 3.30894 1.98244 4.31357C1.98244 6.19995 2.95385 7.87211 4.40185 8.84021C3.52674 8.82361 2.66824 8.56954 1.94092 8.16935C1.94092 8.18596 1.94092 8.20754 1.94092 8.22913C1.94092 10.876 3.82896 13.0746 6.30483 13.5811C5.86147 13.7023 5.37825 13.7604 4.87676 13.7604C4.52805 13.7604 4.17601 13.7405 3.84557 13.6674C4.5513 15.8245 6.55391 17.4103 8.93513 17.4618C7.08197 18.9114 4.72897 19.7849 2.1817 19.7849C1.73501 19.7849 1.30659 19.7649 0.878174 19.7101C3.29094 21.2661 6.1504 22.1544 9.23403 22.1544C19.2571 22.1544 24.7369 13.8517 24.7369 6.65494C24.7369 6.41416 24.7286 6.18168 24.7169 5.95087C25.798 5.18369 26.7063 4.22556 27.4469 3.12296Z" fill="#808080"/>
</svg>
