<svg width="28" height="19" viewBox="0 0 28 19" fill="none" xmlns="http://www.w3.org/2000/svg">
<path d="M26.0269 1.9882C25.3063 0.706264 24.5241 0.470467 22.9317 0.380797C21.3409 0.272862 17.3406 0.228027 13.8751 0.228027C10.4029 0.228027 6.40097 0.272862 4.81183 0.379137C3.22268 0.470467 2.43891 0.704603 1.71159 1.9882C0.969327 3.26848 0.587402 5.47368 0.587402 9.35604C0.587402 9.35936 0.587402 9.36102 0.587402 9.36102C0.587402 9.36434 0.587402 9.366 0.587402 9.366V9.36932C0.587402 13.2351 0.969327 15.4569 1.71159 16.7239C2.43891 18.0058 3.22102 18.2383 4.81016 18.3462C6.40097 18.4392 10.4029 18.494 13.8751 18.494C17.3406 18.494 21.3409 18.4392 22.9333 18.3479C24.5258 18.2399 25.3079 18.0075 26.0286 16.7255C26.7775 15.4585 27.1561 13.2367 27.1561 9.37098C27.1561 9.37098 27.1561 9.366 27.1561 9.36268C27.1561 9.36268 27.1561 9.35936 27.1561 9.3577C27.1561 5.47368 26.7775 3.26848 26.0269 1.9882ZM10.5507 14.3426V4.37939L18.8534 9.36102L10.5507 14.3426Z" fill="#808080"/>
</svg>
